<svg xmlns="http://www.w3.org/2000/svg" width="128" height="90.7"><path fill="#fff" d="M50.8 62.1L85.4 44 50.8 25.8z"/><path d="M126.7 19.6s-1.3-8.9-5.1-12.8c-4.9-5.1-10.3-5.2-12.8-5.5C90.9 0 64 0 64 0S37.1 0 19.2 1.3c-2.5.3-8 .3-12.8 5.5-3.8 3.9-5.1 12.8-5.1 12.8S0 30 0 40.4v9.8c0 10.4 1.3 20.9 1.3 20.9S2.5 80 6.4 83.9c4.9 5.1 11.3 5 14.1 5.5 10.2 1 43.5 1.3 43.5 1.3s26.9 0 44.8-1.3c2.5-.3 8-.3 12.8-5.5 3.8-3.9 5.1-12.8 5.1-12.8s1.3-10.4 1.3-20.9v-9.8c0-10.4-1.3-20.8-1.3-20.8zM50.8 62.1V25.9L85.4 44 50.8 62.1z" fill="#ce1312"/></svg>